<?xml version="1.0" encoding="UTF-8"?>
<svg version="1.1" xmlns="http://www.w3.org/2000/svg" width="1024" height="1024">
<path d="M0 0 C337.92 0 675.84 0 1024 0 C1024 337.92 1024 675.84 1024 1024 C686.08 1024 348.16 1024 0 1024 C0 686.08 0 348.16 0 0 Z " fill="#000000" transform="translate(0,0)"/>
<path d="M0 0 C1.12558319 -0.0071553 2.25116638 -0.01431061 3.41085815 -0.02168274 C4.64671158 -0.02437164 5.882565 -0.02706055 7.15586853 -0.02983093 C9.1075293 -0.03968773 9.1075293 -0.03968773 11.09861755 -0.04974365 C15.41708648 -0.07077374 19.7355557 -0.08114849 24.05406189 -0.09111023 C25.5431158 -0.09515888 27.03216953 -0.09927584 28.52122307 -0.10346031 C35.5211306 -0.12251365 42.52102762 -0.13674154 49.5209561 -0.14507228 C57.58625246 -0.15483045 65.65127332 -0.18111193 73.71647269 -0.22157317 C79.95867832 -0.25180745 86.20080535 -0.26654826 92.44308275 -0.26985329 C96.16696331 -0.27219646 99.89054964 -0.28105964 103.61435127 -0.30631447 C107.77680176 -0.33408699 111.93864356 -0.32974182 116.10118103 -0.32279968 C117.32286484 -0.33560974 118.54454865 -0.3484198 119.80325317 -0.36161804 C128.99638663 -0.30588224 137.99807037 1.44201872 144.89390564 8.00263977 C149.1514327 13.41324707 151.76031382 19.91365189 154.58140564 26.14717102 C155.02162048 27.11509583 155.46183533 28.08302063 155.91539001 29.08027649 C158.88619079 35.6308314 161.81822327 42.19825664 164.74032593 48.77061462 C168.17958006 56.50117008 171.65462316 64.2155656 175.12956238 71.93013 C176.66626651 75.34188156 178.20206301 78.7540414 179.73789978 82.16618347 C180.9087847 84.76747335 182.07980074 87.36870418 183.25083923 89.96992493 C186.65522152 97.53231781 190.05829487 105.09529969 193.46144104 112.6582489 C195.33470649 116.82124818 197.20806065 120.98420754 199.08140564 125.14717102 C199.83140606 126.8138375 200.58140606 128.48050416 201.33140564 130.14717102 C201.70265564 130.97217102 202.07390564 131.79717102 202.45640564 132.64717102 C295.83140565 340.14717103 295.83140565 340.14717103 296.9561615 342.64666748 C297.7069364 344.31503012 298.45775026 345.98337523 299.20860291 347.65170288 C301.07206529 351.79227896 302.93487181 355.9331475 304.79624939 360.07466125 C308.3079675 367.88625412 311.82655712 375.6945585 315.36680603 383.49327087 C317.03859441 387.17701389 318.70686415 390.86234546 320.37486267 394.54780579 C321.17095498 396.30413812 321.96877043 398.05969056 322.76841736 399.81440735 C323.87712058 402.24759063 324.97985478 404.68339943 326.08140564 407.11982727 C326.40761902 407.83155594 326.7338324 408.54328461 327.06993103 409.27658081 C330.67781731 417.29180637 333.4829294 425.61139476 330.92906189 434.38935852 C328.27162449 440.43417321 324.13029674 443.6016189 318.17999268 446.19299316 C313.10806563 447.53783224 308.25343933 447.43374677 303.02745056 447.42182922 C301.87060257 447.42694016 300.71375458 447.43205109 299.52185059 447.43731689 C295.70180572 447.45120406 291.88194148 447.45025655 288.06187439 447.44795227 C286.0742336 447.45085702 284.08659274 447.45376666 282.09895307 447.45735902 C275.85049117 447.46843953 269.60208939 447.46890035 263.35362244 447.46284485 C256.92568147 447.45681074 250.49795971 447.46910494 244.07005614 447.49041492 C238.53606822 447.50808107 233.00214975 447.51402426 227.4681347 447.51077718 C224.1697186 447.50897154 220.87149267 447.51285734 217.57309532 447.52549171 C213.88974146 447.53786779 210.2068905 447.53105643 206.52354431 447.51948547 C205.44323944 447.52712921 204.36293457 447.53477295 203.24989319 447.54264832 C194.88377676 447.48474168 187.24653124 446.36069576 180.83140564 440.58467102 C180.13531189 439.98525696 179.43921814 439.3858429 178.72203064 438.76826477 C173.05219729 431.82582284 169.97284701 422.67073172 166.39390564 414.52217102 C165.33097561 412.11683222 164.26734339 409.71181808 163.20249939 407.30732727 C162.9181604 406.66492599 162.63382141 406.02252472 162.34086609 405.36065674 C158.58195868 396.87756182 154.76743069 388.41944343 150.95640564 379.95967102 C150.18402216 378.24466628 149.41164264 376.52965975 148.63926697 374.81465149 C147.0691096 371.32854229 145.49866304 367.84256352 143.92808533 364.35664368 C140.51631736 356.78359282 137.10843957 349.20879165 133.70036316 341.63407898 C131.8275457 337.47170055 129.95446186 333.30944201 128.08140564 329.14717102 C127.33140437 327.48050492 126.58140437 325.81383826 125.83140564 324.14717102 C125.46015564 323.32217102 125.08890564 322.49717102 124.70640564 321.64717102 C103.33140563 274.14717099 103.33140563 274.14717099 102.20658875 271.64756775 C101.45598854 269.97957409 100.70537818 268.311585 99.95475769 266.64360046 C98.08885775 262.49727412 96.22312994 258.35087051 94.35777283 254.20429993 C90.87464215 246.46200478 87.38983466 238.72047764 83.89915466 230.98158264 C82.26800971 227.36503472 80.63780884 223.74806159 79.00767517 220.13105774 C78.23763654 218.42316383 77.46714622 216.71547349 76.69615173 215.00801086 C75.62026195 212.62524124 74.54581613 210.24182709 73.47203064 207.85810852 C72.96826904 206.74179047 72.96826904 206.74179047 72.45433044 205.60292053 C70.86293206 202.06164137 69.3026123 198.5118747 67.80601501 194.92939758 C67.39437103 193.94672409 67.39437103 193.94672409 66.97441101 192.94419861 C66.24269988 191.18598892 65.52056904 189.42380075 64.79917908 187.66133118 C63.8353864 185.0199862 63.8353864 185.0199862 61.58140564 184.14717102 C61.02066345 185.9802179 61.02066345 185.9802179 60.44859314 187.85029602 C58.36293938 194.09508897 55.52483025 199.95619024 52.70640564 205.89717102 C51.52218616 208.41649526 50.342524 210.93794131 49.16343689 213.45967102 C48.86283859 214.10176514 48.5622403 214.74385925 48.25253296 215.40541077 C45.23090522 221.87192492 42.30328569 228.37944281 39.39390564 234.89717102 C38.60463684 236.66435486 38.60463684 236.66435486 37.79942322 238.46723938 C36.96414507 240.33760134 36.12895877 242.20800398 35.2940979 244.07855225 C31.51275184 252.54733165 27.70167344 261.00274861 23.89390564 269.45967102 C23.1247604 271.16832047 22.35563617 272.87697938 21.58653259 274.58564758 C20.02843685 278.04711438 18.47023997 281.50853564 16.91197205 284.96992493 C13.50758976 292.53231781 10.10451641 300.09529969 6.70137024 307.6582489 C4.82810479 311.82124818 2.95475063 315.98420754 1.08140564 320.14717102 C0.33140522 321.8138375 -0.41859478 323.48050416 -1.16859436 325.14717102 C-2.66859436 328.48050435 -4.16859436 331.81383769 -5.66859436 335.14717102 C-6.03980408 335.97208542 -6.41101379 336.79699982 -6.79347229 337.64691162 C-7.54386735 339.31444828 -8.29427426 340.98197961 -9.04469299 342.64950562 C-10.91374556 346.80281784 -12.78259554 350.95622098 -14.65101624 355.1098175 C-18.09668552 362.76916613 -21.54409384 370.42771387 -24.99876404 378.08300781 C-26.58447895 381.59724972 -28.16888368 385.11208184 -29.75337219 388.62687683 C-30.90373925 391.17674366 -32.05636008 393.72558329 -33.2091217 396.27436829 C-36.38210411 403.30199761 -39.5283512 410.33171214 -42.48890686 417.45185852 C-42.93169983 418.51009827 -43.3744928 419.56833801 -43.83070374 420.65864563 C-44.59576997 422.50432171 -45.34651075 424.35606278 -46.07679749 426.21577454 C-50.10082672 435.92716353 -55.72734164 441.81526529 -65.3098793 446.06751156 C-70.42290446 447.84326967 -75.28065371 447.82836002 -80.64784241 447.7624054 C-81.8167804 447.76795441 -82.98571838 447.77350342 -84.19007874 447.77922058 C-88.02058525 447.79094827 -91.8498909 447.76681353 -95.68031311 447.74092102 C-98.35829341 447.73920834 -101.03622757 447.73917446 -103.71420288 447.74104309 C-109.31153198 447.74098973 -114.90852113 447.72135411 -120.50575256 447.68916321 C-126.95941116 447.65222521 -133.41262604 447.64349728 -139.86637658 447.65046072 C-146.10227053 447.65678286 -152.33801384 447.64598338 -158.57387733 447.62649536 C-161.2159991 447.61947812 -163.85813417 447.61633928 -166.50026512 447.6171875 C-170.19293083 447.61538538 -173.88497245 447.59396819 -177.57752991 447.5670929 C-178.66292557 447.5700235 -179.74832123 447.5729541 -180.86660767 447.57597351 C-188.28620848 447.49286077 -193.75282942 446.39661769 -200.16859436 442.45967102 C-204.27399172 438.24023484 -206.62461191 433.7170612 -206.85609436 427.77217102 C-206.14717204 417.29860414 -201.23340903 407.99091009 -196.84370422 398.64268494 C-194.90974035 394.52220352 -192.9993009 390.39081869 -191.08656311 386.26045227 C-190.69380188 385.41357346 -190.30104065 384.56669464 -189.89637756 383.69415283 C-186.0210314 375.32267154 -182.27111631 366.89776659 -178.54359436 358.45967102 C-172.77216663 345.41045871 -166.93332882 332.39342123 -161.04359436 319.39717102 C-159.43289038 315.84249571 -157.82219195 312.28781788 -156.21156311 308.73310852 C-155.81273422 307.85294571 -155.41390533 306.9727829 -155.00299072 306.06594849 C-150.77178197 296.72502979 -146.56204161 287.37448584 -142.35609436 278.02217102 C-141.9867981 277.20107849 -141.61750183 276.37998596 -141.23701477 275.53401184 C-139.37525181 271.39443588 -137.51378426 267.25472717 -135.65248108 263.11494446 C-132.2849647 255.62555857 -128.91466548 248.13742492 -125.54460144 240.64918518 C-123.66915417 236.48189734 -121.7938831 232.31453021 -119.91859436 228.14717102 C-119.16859521 226.48050397 -118.41859521 224.81383731 -117.66859436 223.14717102 C-117.29734436 222.32217102 -116.92609436 221.49717102 -116.54359436 220.64717102 C-115.41859436 218.14717102 -114.29359436 215.64717102 -113.16859436 213.14717102 C-112.79736954 212.32222641 -112.42614471 211.4972818 -112.04367065 210.64733887 C-111.29341803 208.98011195 -110.54316372 207.3128858 -109.79290771 205.6456604 C-107.92175896 201.4875718 -106.05063931 197.3294701 -104.17958069 193.17134094 C-100.75865129 185.56894942 -97.33747836 177.96666788 -93.91526794 170.36485291 C-83.40235572 147.01256008 -83.40235572 147.01256008 -72.91859436 123.64717102 C-67.86767609 112.37111212 -62.80209813 101.10170839 -57.73109436 89.83467102 C-57.35463776 88.99815002 -56.97818115 88.16162903 -56.59031677 87.29975891 C-52.64214663 78.52665621 -48.69260308 69.7541752 -44.73947144 60.98330688 C-43.12411767 57.39902165 -41.50940667 53.81444702 -39.89476013 50.22984314 C-39.13354756 48.54038683 -38.37202449 46.85107037 -37.6101532 45.16191101 C-36.5415993 42.79277147 -35.4740104 40.42320007 -34.40687561 38.05342102 C-34.06978073 37.30565399 -33.73268585 36.55788696 -33.38537598 35.78746033 C-31.71207705 32.06540318 -30.06108457 28.33547032 -28.44691467 24.58735657 C-28.13183456 23.85742493 -27.81675446 23.12749329 -27.49212646 22.3754425 C-26.90290915 21.00602583 -26.31750596 19.63495873 -25.73678589 18.26191711 C-21.94385588 9.44390757 -17.0675128 5.13391057 -8.41859436 1.14717102 C-5.34136601 0.12142824 -3.22443925 0.01406391 0 0 Z " fill="#00A6E0" transform="translate(449.41859436035156,289.8528289794922)"/>
</svg>
